<?xml version="1.0" encoding="UTF-8" standalone="no"?>
<!-- Created with Inkscape (http://www.inkscape.org/) -->

<svg
   xmlns:dc="http://purl.org/dc/elements/1.1/"
   xmlns:cc="http://creativecommons.org/ns#"
   xmlns:rdf="http://www.w3.org/1999/02/22-rdf-syntax-ns#"
   xmlns:svg="http://www.w3.org/2000/svg"
   xmlns="http://www.w3.org/2000/svg"
   xmlns:sodipodi="http://sodipodi.sourceforge.net/DTD/sodipodi-0.dtd"
   xmlns:inkscape="http://www.inkscape.org/namespaces/inkscape"
   id="svg4671"
   version="1.1"
   inkscape:version="0.47 r22583"
   width="65"
   height="421"
   sodipodi:docname="aiguille.png">
  <metadata
     id="metadata4677">
    <rdf:RDF>
      <cc:Work
         rdf:about="">
        <dc:format>image/svg+xml</dc:format>
        <dc:type
           rdf:resource="http://purl.org/dc/dcmitype/StillImage" />
        <dc:title></dc:title>
      </cc:Work>
    </rdf:RDF>
  </metadata>
  <defs
     id="defs4675">
    <inkscape:perspective
       sodipodi:type="inkscape:persp3d"
       inkscape:vp_x="0 : 0.5 : 1"
       inkscape:vp_y="0 : 1000 : 0"
       inkscape:vp_z="1 : 0.5 : 1"
       inkscape:persp3d-origin="0.5 : 0.33333333 : 1"
       id="perspective4679" />
  </defs>
  <sodipodi:namedview
     pagecolor="#ffffff"
     bordercolor="#666666"
     borderopacity="1"
     objecttolerance="10"
     gridtolerance="10"
     guidetolerance="10"
     inkscape:pageopacity="0"
     inkscape:pageshadow="2"
     inkscape:window-width="1117"
     inkscape:window-height="904"
     id="namedview4673"
     showgrid="false"
     inkscape:zoom="3.1710632"
     inkscape:cx="-4.5739688"
     inkscape:cy="249.91406"
     inkscape:window-x="0"
     inkscape:window-y="24"
     inkscape:window-maximized="0"
     inkscape:current-layer="g4683" />
  <g
     id="g4683">
    <path
       style="fill:#c6c6c6"
       d="M 32.5,0 0,421 32.5,0 z M 46.762548,145.25 46.5,31.5 40.169879,20 C 36.688312,13.675 33.382903,8.05 32.824525,7.5 31.500753,6.1960899 29.89586,8.5436162 23,21.870636 L 17.5,32.5 l 0.258491,113.25 0.25849,113.25 14.504058,0 14.504057,0 -0.262548,-113.75 z"
       id="path4697"
       sodipodi:nodetypes="ccccccsccccccc" />
    <path
       style="fill:#555555"
       d="M 20.198715,412.41173 C 7.7358719,406.20124 2.038675,392.04729 6.6060987,378.64264 7.5204986,375.95902 10.315879,371.62723 13.096868,368.58439 L 17.981539,363.23978 18.24077,312.36989 18.5,261.5 l 14,0 14,0 0.25923,50.86989 0.259231,50.86989 4.884671,5.34461 c 10.211514,11.17302 10.839575,26.34655 1.540221,37.21075 C 48.21285,411.90581 41.172795,415 32.5,415 c -5.641274,0 -8.178682,-0.53389 -12.301285,-2.58827 z"
       id="path4687" />
    <path
       style="fill:#303030"
       d="M 22.5,411.63385 C 4.8539334,403.35216 1.6137352,382.01066 15.941142,368.43405 l 4.040746,-3.829 0.259056,-50.55253 L 20.5,263.5 l 12.5,0 12.5,0 -0.342135,50.5 -0.342134,50.5 4.141937,3.88152 c 11.546044,10.82012 12.14692,27.1583 1.398269,38.0198 -4.24693,4.29152 -11.992343,7.57914 -17.855937,7.57914 -3.159022,0 -6.840978,-0.86401 -10,-2.34661 z"
       id="path4685" />
  </g>
</svg>
