<?xml version="1.0" encoding="utf-8"?>
<!-- Generator: Adobe Illustrator 14.0.0, SVG Export Plug-In . SVG Version: 6.00 Build 43363)  -->
<!DOCTYPE svg PUBLIC "-//W3C//DTD SVG 1.1//EN" "http://www.w3.org/Graphics/SVG/1.1/DTD/svg11.dtd">
<svg version="1.1" id="Calque_1" xmlns="http://www.w3.org/2000/svg" xmlns:xlink="http://www.w3.org/1999/xlink" x="0px" y="0px"
	 width="555.883px" height="112.875px" viewBox="0 0 555.883 112.875" enable-background="new 0 0 555.883 112.875"
	 xml:space="preserve">
<g id="ENSISA_2_">
	<g>
		<defs>
			<rect id="SVGID_1_" width="555.883" height="112.875"/>
		</defs>
		<clipPath id="SVGID_2_">
			<use xlink:href="#SVGID_1_"  overflow="visible"/>
		</clipPath>
		<path clip-path="url(#SVGID_2_)" fill="#8AA7D2" d="M21.643,53.9c4.609,0,9.212,0.416,13.815,0.416
			c11.743,0,40.762-1.681,40.762-20.694c0-11.42-11.969-17.553-21.879-17.553c-21.414,0-32.698,12.261-32.698,28.322V53.9z
			 M14.705,15.015C27.586,3.064,36.376,0.028,56.193,0.028c25.313,0,43.06,10.13,43.06,33.594c0,27.059-32.235,35.508-54.583,35.508
			c-8.526,0-14.503,0-23.027-0.428c0,18.604,7.367,28.12,29.017,28.12c12.211,0,25.334-4.237,34.078-10.992l1.15,16.886
			c-10.818,5.93-23.712,10.154-38.687,10.154C13.579,112.869,0,97.653,0,68.277V57.325C0,46.298,1.83,26.988,14.705,15.015"/>
		<path clip-path="url(#SVGID_2_)" fill="#0060A9" d="M534.238,58.978c-4.627,0-9.224-0.431-13.833-0.431
			c-11.736,0-40.762,1.7-40.762,20.726c0,11.401,11.973,17.537,21.88,17.537c21.426,0,32.715-12.258,32.715-28.318V58.978z
			 M541.168,97.863c-12.885,11.954-21.675,15.012-41.481,15.012c-25.334,0-43.082-10.16-43.082-33.603
			c0-27.065,32.258-35.518,54.595-35.518c8.518,0,14.504,0,23.039,0.435c0-18.607-7.382-28.12-29.037-28.12
			c-12.195,0-25.322,4.231-34.081,10.996l-1.147-16.907C480.798,4.233,493.713,0,508.669,0c33.622,0,47.214,15.223,47.214,44.611
			v10.946C555.869,66.586,554.04,85.903,541.168,97.863"/>
		<path clip-path="url(#SVGID_2_)" fill="#8AA7D2" d="M228.499,89.198c8.526,5.074,20.722,7.611,26.948,7.611
			c9.894,0,22.105-3.809,22.105-15.428c0-19.655-50.898-17.968-50.898-48.199c0-22.4,18.198-33.163,41.454-33.163
			c10.133,0,18.421,1.895,26.95,4.215l-1.839,17.329c-4.846-2.732-17.736-5.493-22.816-5.493c-11.042,0-20.71,4.225-20.71,13.104
			c0,21.988,50.883,15.648,50.883,50.099c0,23.032-20.037,33.603-40.989,33.603c-11.051,0-22.338-1.055-32.249-5.918L228.499,89.198
			z"/>
		<path clip-path="url(#SVGID_2_)" fill="#0060A9" d="M440.836,106.957c-9.913,4.857-21.19,5.912-32.239,5.912
			c-20.954,0-40.998-10.564-40.998-33.597c0-34.441,50.886-28.12,50.886-50.099c0-8.874-9.651-13.104-20.719-13.104
			c-5.062,0-17.964,2.745-22.797,5.493l-1.83-17.329c8.523-2.32,16.806-4.215,26.947-4.215c23.257,0,41.438,10.763,41.438,33.163
			c0,30.231-50.898,28.544-50.898,48.206c0,11.612,12.227,15.421,22.127,15.421c6.203,0,18.405-2.538,26.929-7.611L440.836,106.957z
			"/>
		<path clip-path="url(#SVGID_2_)" fill="#FFDD00" d="M177.505,65.922c0,8.852-7.177,16.017-16.029,16.017
			c-8.846,0-16.017-7.165-16.017-16.017s7.171-16.011,16.017-16.011C170.328,49.912,177.505,57.07,177.505,65.922"/>
		<path clip-path="url(#SVGID_2_)" fill="#8AA7D2" d="M326.949,0.019c-2.916,16.29-4.913,34.639-4.913,54.049
			c0,21.321,1.973,41.352,5.443,58.807h13.229c3.467-17.456,5.435-37.486,5.435-58.807c0-19.41-2.004-37.759-4.895-54.049H326.949z"
			/>
		<path clip-path="url(#SVGID_2_)" fill="#8AA7D2" d="M166.649,0.019c-10.902,0-20.027,4.857-27.558,12.854
			c-4.917,4.844-5.577-9.401-5.577-9.401l-19.072-0.037c0.903,42.961-2.019,70.652-3.716,91.762
			c-0.258,2.878-0.856,11.582-0.952,17.679h17.366c2.987-31.165,1.434-90.23,37.357-90.23c26.479,0,29.422,60.014,29.962,90.23
			h17.363C210.99,64.471,206.453,0.019,166.649,0.019"/>
	</g>
</g>
</svg>
