<?xml version="1.0" encoding="UTF-8" standalone="no"?>
<!-- Created with Inkscape (http://www.inkscape.org/) -->
<svg
   xmlns:dc="http://purl.org/dc/elements/1.1/"
   xmlns:cc="http://creativecommons.org/ns#"
   xmlns:rdf="http://www.w3.org/1999/02/22-rdf-syntax-ns#"
   xmlns:svg="http://www.w3.org/2000/svg"
   xmlns="http://www.w3.org/2000/svg"
   xmlns:sodipodi="http://sodipodi.sourceforge.net/DTD/sodipodi-0.dtd"
   xmlns:inkscape="http://www.inkscape.org/namespaces/inkscape"
   id="svg2"
   sodipodi:version="0.32"
   inkscape:version="0.46"
   width="222.5"
   height="201.25"
   xml:space="preserve"
   sodipodi:docname="Université de Haute-Alsace.svg"
   inkscape:output_extension="org.inkscape.output.svg.inkscape"><metadata
     id="metadata7"><rdf:RDF><cc:Work
         rdf:about=""><dc:format>image/svg+xml</dc:format><dc:type
           rdf:resource="http://purl.org/dc/dcmitype/StillImage" /></cc:Work></rdf:RDF></metadata><defs
     id="defs5"><inkscape:perspective
       sodipodi:type="inkscape:persp3d"
       inkscape:vp_x="0 : 526.18109 : 1"
       inkscape:vp_y="0 : 1000 : 0"
       inkscape:vp_z="744.09448 : 526.18109 : 1"
       inkscape:persp3d-origin="372.04724 : 350.78739 : 1"
       id="perspective9" /></defs><sodipodi:namedview
     inkscape:window-height="726"
     inkscape:window-width="1017"
     inkscape:pageshadow="2"
     inkscape:pageopacity="0.0"
     guidetolerance="10.0"
     gridtolerance="10.0"
     objecttolerance="10.0"
     borderopacity="1.0"
     bordercolor="#666666"
     pagecolor="#ffffff"
     id="base"
     showgrid="false"
     inkscape:zoom="2.4642245"
     inkscape:cx="111.62438"
     inkscape:cy="100.23438"
     inkscape:window-x="0"
     inkscape:window-y="25"
     inkscape:current-layer="g11" /><g
     id="g11"
     inkscape:groupmode="layer"
     inkscape:label="UHA"
     transform="matrix(1.25,0,0,-1.25,0,201.25)"><g
       id="g13"
       transform="scale(0.1,0.1)"><path
         d="M 1616.89,348.32 L 493.941,348.32 L 493.941,1365.39 L 1616.89,1365.39 L 1616.89,348.32"
         style="fill:#1b63b7;fill-opacity:1;fill-rule:nonzero;stroke:none"
         id="path15" /><path
         d="M 1657.23,1603.75 L 1662.17,1603.75 L 1634.94,1330.35 C 1612.85,1186.5 1558.96,840.664 1438.67,595.273 C 1317.17,347.344 1214.04,236.23 1214.04,236.23 L 7.75,236.23 C 7.75,236.23 334.938,306.719 613.66,443.555 C 929.68,598.672 1126.89,732.832 1342.89,998.652 C 1569.75,1277.83 1657.23,1603.75 1657.23,1603.75 L 1657.23,1603.75"
         style="fill:#fedd03;fill-opacity:1;fill-rule:nonzero;stroke:none"
         id="path17" /><path
         d="M 523.16,278.594 L 523.16,218.086 C 523.16,204.805 523.16,199.336 526.598,194.023 C 531.754,186.055 542.477,184.18 550.875,184.18 C 577.258,184.18 577.258,197.773 577.258,216.836 L 577.258,278.594 L 604.797,278.594 L 604.797,219.805 C 604.797,199.805 603.84,188.711 597.156,180.273 C 586.633,166.973 566.941,164.785 551.656,164.785 C 495.621,164.785 495.621,193.086 495.621,218.867 L 495.621,278.594 L 523.16,278.594 L 523.16,278.594"
         style="fill:#1b63b7;fill-opacity:1;fill-rule:nonzero;stroke:none"
         id="path19" /><path
         d="M 634.25,278.594 L 661.008,278.594 L 716.648,203.867 L 717.043,203.867 L 717.043,278.594 L 742.668,278.594 L 742.668,166.66 L 714.934,166.66 L 660.242,239.668 L 659.875,239.668 L 659.875,166.66 L 634.25,166.66 L 634.25,278.594"
         style="fill:#1b63b7;fill-opacity:1;fill-rule:nonzero;stroke:none"
         id="path21" /><path
         d="M 770.188,278.594 L 797.727,278.594 L 797.727,166.66 L 770.188,166.66 L 770.188,278.594"
         style="fill:#1b63b7;fill-opacity:1;fill-rule:nonzero;stroke:none"
         id="path23" /><path
         d="M 810.535,278.594 L 840.559,278.594 L 874.773,195.742 L 875.168,195.742 L 908.625,278.594 L 937.883,278.594 L 888.938,166.66 L 859.285,166.66 L 810.535,278.594 L 810.535,278.594"
         style="fill:#1b63b7;fill-opacity:1;fill-rule:nonzero;stroke:none"
         id="path25" /><path
         d="M 952.41,278.594 L 1053.94,278.594 L 1053.94,259.668 L 979.949,259.668 L 979.949,234.824 L 1048.78,234.824 L 1048.78,215.898 L 979.949,215.898 L 979.949,185.586 L 1056.44,185.586 L 1056.44,166.66 L 952.41,166.66 L 952.41,278.594"
         style="fill:#1b63b7;fill-opacity:1;fill-rule:nonzero;stroke:none"
         id="path27" /><path
         d="M 1107.51,259.668 L 1129.12,259.668 C 1147.67,259.668 1151.12,259.668 1156.28,257.168 C 1161.45,254.668 1163.36,250.293 1163.36,245.762 C 1163.36,242.48 1162.4,235.293 1152.84,232.637 C 1148.06,231.23 1136.39,231.23 1127.97,231.23 L 1107.51,231.23 L 1107.51,259.668 z M 1079.95,166.66 L 1107.51,166.66 L 1107.51,213.398 L 1113.04,213.398 C 1131.6,213.398 1133.32,211.211 1149.97,191.055 L 1169.86,166.66 L 1202.97,166.66 L 1186.32,188.555 C 1172.54,206.523 1167.19,210.586 1155.71,215.898 L 1155.71,216.211 C 1161.07,216.68 1166.23,217.93 1171.02,219.648 C 1184.4,224.199 1191.86,234.98 1191.86,247.168 C 1191.86,258.105 1185.36,270.938 1169.49,275.781 C 1165.27,276.875 1158.59,278.594 1138.11,278.594 L 1079.95,278.594 L 1079.95,166.66"
         style="fill:#1b63b7;fill-opacity:1;fill-rule:nonzero;stroke:none"
         id="path29" /><path
         d="M 1238.71,205.117 C 1240.06,199.336 1243.69,183.711 1268.55,183.711 C 1287.85,183.711 1295.51,191.992 1295.51,199.18 C 1295.51,208.555 1285.94,210.586 1260.7,215.586 C 1247.13,218.398 1216.91,224.512 1216.91,249.199 C 1216.91,261.387 1226.68,280.469 1266.82,280.469 C 1293.59,280.469 1318.07,271.875 1319.22,246.543 L 1291.48,245.605 C 1290.35,251.387 1288.24,261.855 1266.45,261.855 C 1258.22,261.855 1243.3,259.824 1243.3,250.762 C 1243.3,243.574 1251.91,240.449 1273.91,236.23 C 1294.75,232.168 1323.05,226.699 1323.05,199.18 C 1323.05,185.586 1312.52,174.16 1300.66,169.785 C 1288.44,165.098 1274.67,164.785 1268.36,164.785 C 1253.63,164.785 1217.3,165.879 1211.95,203.086 L 1238.71,205.117 L 1238.71,205.117"
         style="fill:#1b63b7;fill-opacity:1;fill-rule:nonzero;stroke:none"
         id="path31" /><path
         d="M 1344.08,278.594 L 1371.6,278.594 L 1371.6,166.66 L 1344.08,166.66 L 1344.08,278.594"
         style="fill:#1b63b7;fill-opacity:1;fill-rule:nonzero;stroke:none"
         id="path33" /><path
         d="M 1429.16,259.668 L 1388.63,259.668 L 1388.63,278.594 L 1497.23,278.594 L 1497.23,259.668 L 1456.7,259.668 L 1456.7,166.66 L 1429.16,166.66 L 1429.16,259.668"
         style="fill:#1b63b7;fill-opacity:1;fill-rule:nonzero;stroke:none"
         id="path35" /><path
         d="M 1515.59,278.594 L 1617.13,278.594 L 1617.13,259.668 L 1543.12,259.668 L 1543.12,234.824 L 1611.95,234.824 L 1611.95,215.898 L 1543.12,215.898 L 1543.12,185.586 L 1619.61,185.586 L 1619.61,166.66 L 1515.59,166.66 L 1515.59,278.594"
         style="fill:#1b63b7;fill-opacity:1;fill-rule:nonzero;stroke:none"
         id="path37" /><path
         d="M 1700.41,188.398 C 1700.41,206.445 1700.41,219.59 1730.92,219.59 C 1760.41,219.59 1761.19,208.242 1761.19,193.945 L 1761.19,180.039 L 1700.41,180.039 L 1700.41,188.398 z M 1684.9,161.484 L 1776.7,161.484 L 1776.7,196.387 C 1776.7,202.324 1776.7,217.656 1766.45,227.051 C 1753.75,238.789 1737.21,238.789 1731.7,238.789 C 1713.75,238.789 1705.27,234.141 1700.41,231.055 C 1684.9,221.133 1684.9,205.938 1684.9,195.488 L 1684.9,161.484"
         style="fill:#1b63b7;fill-opacity:1;fill-rule:nonzero;stroke:none"
         id="path39" /><path
         d="M 1684.9,254.492 L 1684.9,322.91 L 1700.41,322.91 L 1700.41,273.047 L 1720.8,273.047 L 1720.8,319.434 L 1736.31,319.434 L 1736.31,273.047 L 1761.19,273.047 L 1761.19,324.59 L 1776.7,324.59 L 1776.7,254.492 L 1684.9,254.492 L 1684.9,254.492"
         style="fill:#1b63b7;fill-opacity:1;fill-rule:nonzero;stroke:none"
         id="path41" /><path
         d="M 1684.9,376.25 L 1684.9,394.805 L 1721.05,394.805 L 1721.05,431.27 L 1684.9,431.27 L 1684.9,449.824 L 1776.7,449.824 L 1776.7,431.27 L 1736.56,431.27 L 1736.56,394.805 L 1776.7,394.805 L 1776.7,376.25 L 1684.9,376.25 L 1684.9,376.25"
         style="fill:#1b63b7;fill-opacity:1;fill-rule:nonzero;stroke:none"
         id="path43" /><path
         d="M 1740.41,492.852 L 1706.31,505.352 L 1740.41,518.105 L 1740.41,492.852 z M 1776.7,552.383 L 1684.9,515.391 L 1684.9,495.684 L 1776.7,459.746 L 1776.7,479.57 L 1755.94,487.188 L 1755.94,524.023 L 1776.7,532.012 L 1776.7,552.383"
         style="fill:#1b63b7;fill-opacity:1;fill-rule:nonzero;stroke:none"
         id="path45" /><path
         d="M 1684.9,574.434 L 1734.51,574.434 C 1745.41,574.434 1749.9,574.434 1754.26,576.758 C 1760.8,580.234 1762.34,587.441 1762.34,593.105 C 1762.34,610.898 1751.19,610.898 1735.55,610.898 L 1684.9,610.898 L 1684.9,629.453 L 1733.11,629.453 C 1749.51,629.453 1758.63,628.809 1765.55,624.297 C 1776.45,617.207 1778.24,603.926 1778.24,593.633 C 1778.24,555.879 1755.04,555.879 1733.87,555.879 L 1684.9,555.879 L 1684.9,574.434"
         style="fill:#1b63b7;fill-opacity:1;fill-rule:nonzero;stroke:none"
         id="path47" /><path
         d="M 1700.41,669.375 L 1700.41,642.07 L 1684.9,642.07 L 1684.9,715.254 L 1700.41,715.254 L 1700.41,687.93 L 1776.7,687.93 L 1776.7,669.375 L 1700.41,669.375 L 1700.41,669.375"
         style="fill:#1b63b7;fill-opacity:1;fill-rule:nonzero;stroke:none"
         id="path49" /><path
         d="M 1684.9,727.617 L 1684.9,796.035 L 1700.41,796.035 L 1700.41,746.172 L 1720.8,746.172 L 1720.8,792.559 L 1736.31,792.559 L 1736.31,746.172 L 1761.19,746.172 L 1761.19,797.715 L 1776.7,797.715 L 1776.7,727.617 L 1684.9,727.617 L 1684.9,727.617"
         style="fill:#1b63b7;fill-opacity:1;fill-rule:nonzero;stroke:none"
         id="path51" /><path
         d="M 1734.65,808.008 L 1734.65,842.676 L 1752.21,842.676 L 1752.21,808.008 L 1734.65,808.008 L 1734.65,808.008"
         style="fill:#1b63b7;fill-opacity:1;fill-rule:nonzero;stroke:none"
         id="path53" /><path
         d="M 1740.41,880.039 L 1706.31,892.539 L 1740.41,905.297 L 1740.41,880.039 z M 1776.7,939.555 L 1684.9,902.582 L 1684.9,882.871 L 1776.7,846.914 L 1776.7,866.758 L 1755.94,874.355 L 1755.94,911.215 L 1776.7,919.203 L 1776.7,939.555"
         style="fill:#1b63b7;fill-opacity:1;fill-rule:nonzero;stroke:none"
         id="path55" /><path
         d="M 1684.9,949.477 L 1684.9,968.031 L 1761.19,968.031 L 1761.19,1014.42 L 1776.7,1014.42 L 1776.7,949.477 L 1684.9,949.477 L 1684.9,949.477"
         style="fill:#1b63b7;fill-opacity:1;fill-rule:nonzero;stroke:none"
         id="path57" /><path
         d="M 1745.16,1042.11 C 1749.9,1043.01 1762.73,1045.47 1762.73,1062.21 C 1762.73,1075.22 1755.94,1080.38 1750.04,1080.38 C 1742.34,1080.38 1740.66,1073.93 1736.56,1056.94 C 1734.26,1047.78 1729.26,1027.43 1709,1027.43 C 1699,1027.43 1683.36,1034.01 1683.36,1061.06 C 1683.36,1079.09 1690.41,1095.59 1711.17,1096.35 L 1711.95,1077.68 C 1707.21,1076.9 1698.61,1075.49 1698.61,1060.8 C 1698.61,1055.26 1700.27,1045.2 1707.71,1045.2 C 1713.61,1045.2 1716.17,1051 1719.65,1065.82 C 1722.97,1079.87 1727.46,1098.93 1750.04,1098.93 C 1761.19,1098.93 1770.55,1091.84 1774.14,1083.85 C 1777.99,1075.61 1778.24,1066.33 1778.24,1062.09 C 1778.24,1052.17 1777.34,1027.68 1746.84,1024.09 L 1745.16,1042.11 L 1745.16,1042.11"
         style="fill:#1b63b7;fill-opacity:1;fill-rule:nonzero;stroke:none"
         id="path59" /><path
         d="M 1740.41,1137.72 L 1706.31,1150.22 L 1740.41,1162.97 L 1740.41,1137.72 z M 1776.7,1197.23 L 1684.9,1160.26 L 1684.9,1140.55 L 1776.7,1104.59 L 1776.7,1124.44 L 1755.94,1132.04 L 1755.94,1168.89 L 1776.7,1176.88 L 1776.7,1197.23"
         style="fill:#1b63b7;fill-opacity:1;fill-rule:nonzero;stroke:none"
         id="path61" /><path
         d="M 1748.61,1278.95 C 1755.8,1277.02 1778.24,1270.82 1778.24,1240.69 C 1778.24,1215.69 1760.16,1198.68 1731.56,1198.68 C 1706.05,1198.68 1683.36,1211.68 1683.36,1241.7 C 1683.36,1246.86 1683.87,1259.75 1693.87,1269.93 C 1698.48,1274.57 1703.87,1276.88 1710.27,1278.7 L 1714.65,1260.26 C 1704.65,1257.95 1699.26,1250.34 1699.26,1240.8 C 1699.26,1217.88 1724.39,1217.88 1730.29,1217.88 C 1738.89,1217.88 1747.46,1218.91 1753.36,1222.78 C 1758.5,1226.12 1762.34,1232.31 1762.34,1240.55 C 1762.34,1252.91 1752.99,1258.6 1742.99,1260.9 L 1748.61,1278.95 L 1748.61,1278.95"
         style="fill:#1b63b7;fill-opacity:1;fill-rule:nonzero;stroke:none"
         id="path63" /><path
         d="M 1684.9,1295.04 L 1684.9,1363.46 L 1700.41,1363.46 L 1700.41,1313.6 L 1720.8,1313.6 L 1720.8,1359.98 L 1736.31,1359.98 L 1736.31,1313.6 L 1761.19,1313.6 L 1761.19,1365.14 L 1776.7,1365.14 L 1776.7,1295.04 L 1684.9,1295.04 L 1684.9,1295.04"
         style="fill:#1b63b7;fill-opacity:1;fill-rule:nonzero;stroke:none"
         id="path65" /><path
         d="M 250.934,1258.07 L 250.934,1092.97 C 250.934,1046 250.934,1026.66 260.074,1007.87 C 273.785,979.688 302.223,973.047 324.566,973.047 C 394.664,973.047 394.664,1021.13 394.664,1088.55 L 394.664,1306.82 L 467.809,1260.29 L 467.809,1099.04 C 467.809,1028.32 465.27,989.062 447.496,959.238 C 419.547,912.266 367.242,904.531 326.598,904.531 C 177.789,904.531 177.789,1004.55 177.789,1095.74 L 177.789,1306.82 L 250.934,1258.07 L 250.934,1258.07"
         style="fill:#1b63b7;fill-opacity:1;fill-rule:nonzero;stroke:none"
         id="path67" /><path
         d="M 544.488,956.426 L 544.488,1306.82 L 617.629,1260.29 L 617.629,1151 L 761.379,1151 L 761.379,1306.82 L 834.504,1262.52 L 834.504,911.172 L 761.379,958.633 L 761.379,1084.14 L 617.629,1084.14 L 617.629,911.172 L 544.488,956.426 L 544.488,956.426"
         style="fill:#ffffff;fill-opacity:1;fill-rule:nonzero;stroke:none"
         id="path69" /><path
         d="M 1093.05,1306.82 L 1015.32,1306.82 L 873.625,911.172 L 951.824,911.172 L 981.809,1000.68 L 1127.09,1000.68 L 1158.61,911.172 L 1238.87,911.172 L 1093.05,1306.82 L 1093.05,1306.82 z M 1020.14,1052.89 L 1039.13,1211.86 L 1116.32,1087.19 L 1020.14,1052.89 L 1020.14,1052.89"
         style="fill:#ffffff;fill-opacity:1;fill-rule:nonzero;stroke:none"
         id="path71" /><path
         d="M 615.129,97.3438 L 614.766,97.3438 L 567.805,0 L 521.012,97.3438 L 520.652,97.3438 L 497.617,3.75 L 489.402,3.75 L 518.336,120.605 L 567.805,17.6953 L 617.441,120.605 L 646.379,3.75 L 638.152,3.75 L 615.129,97.3438 L 615.129,97.3438"
         style="fill:#1b63b7;fill-opacity:1;fill-rule:nonzero;stroke:none"
         id="path73" /><path
         d="M 719.766,73.0469 L 719.766,31.5039 C 719.766,24.4531 719.941,17.4023 714.766,11.543 C 709.055,5.25391 699.402,2.24609 690.129,2.24609 C 680.828,2.24609 671.191,5.25391 665.48,11.543 C 660.305,17.4023 660.48,24.4531 660.48,31.5039 L 660.48,73.0469 L 668.516,73.0469 L 668.516,33.9062 C 668.516,20.5469 670.305,8.55469 690.129,8.55469 C 709.941,8.55469 711.73,20.5469 711.73,33.9062 L 711.73,73.0469 L 719.766,73.0469 L 719.766,73.0469"
         style="fill:#1b63b7;fill-opacity:1;fill-rule:nonzero;stroke:none"
         id="path75" /><path
         d="M 754.055,3.75 L 746.008,3.75 L 746.008,127.5 L 754.055,127.5 L 754.055,3.75"
         style="fill:#1b63b7;fill-opacity:1;fill-rule:nonzero;stroke:none"
         id="path77" /><path
         d="M 789.578,127.5 L 789.578,62.2461 L 789.941,62.2461 C 794.758,69.9023 803.691,74.5508 814.402,74.5508 C 835.652,74.5508 841.555,63.4453 841.555,45.6055 L 841.555,3.75 L 833.508,3.75 L 833.508,45.6055 C 833.508,58.0469 831.73,68.2422 813.691,68.2422 C 792.98,68.2422 789.578,52.0508 789.578,37.9492 L 789.578,3.75 L 781.555,3.75 L 781.555,127.5 L 789.578,127.5 L 789.578,127.5"
         style="fill:#1b63b7;fill-opacity:1;fill-rule:nonzero;stroke:none"
         id="path79" /><path
         d="M 903.328,68.2422 C 923.691,68.2422 939.23,55.3516 939.23,38.2539 C 939.23,21.4453 923.508,8.55469 903.328,8.55469 C 883.867,8.55469 869.055,22.5 869.055,38.2539 C 869.055,54.2969 883.691,68.2422 903.328,68.2422 L 903.328,68.2422 z M 903.879,74.5508 C 879.941,74.5508 861.008,58.2031 861.008,38.2539 C 861.008,18.5938 880.117,2.24609 903.879,2.24609 C 928.152,2.24609 947.266,17.8516 947.266,38.3984 C 947.266,58.9453 928.152,74.5508 903.879,74.5508 L 903.879,74.5508"
         style="fill:#1b63b7;fill-opacity:1;fill-rule:nonzero;stroke:none"
         id="path81" /><path
         d="M 1024.77,73.0469 L 1024.77,31.5039 C 1024.77,24.4531 1024.94,17.4023 1019.77,11.543 C 1014.05,5.25391 1004.4,2.24609 995.129,2.24609 C 985.828,2.24609 976.191,5.25391 970.48,11.543 C 965.305,17.4023 965.48,24.4531 965.48,31.5039 L 965.48,73.0469 L 973.516,73.0469 L 973.516,33.9062 C 973.516,20.5469 975.305,8.55469 995.129,8.55469 C 1014.94,8.55469 1016.73,20.5469 1016.73,33.9062 L 1016.73,73.0469 L 1024.77,73.0469 L 1024.77,73.0469"
         style="fill:#1b63b7;fill-opacity:1;fill-rule:nonzero;stroke:none"
         id="path83" /><path
         d="M 1085.66,60.4492 C 1082.99,65.2539 1077.63,68.2422 1071.19,68.2422 C 1064.23,68.2422 1057.08,63.4453 1057.08,57.4492 C 1057.08,40.8008 1097.27,48.9062 1097.27,23.8477 C 1097.27,11.0938 1085.49,2.24609 1070.65,2.24609 C 1056.9,2.24609 1045.65,9.29688 1042.26,20.5469 L 1050.12,22.6562 C 1053.15,14.3945 1059.76,8.55469 1070.65,8.55469 C 1081.02,8.55469 1089.24,15.4492 1089.24,24.1484 C 1089.24,32.6953 1081.39,35.3984 1073.15,37.793 C 1061.9,41.25 1049.05,45.293 1049.05,57.0039 C 1049.05,67.5 1059.58,74.5508 1071.55,74.5508 C 1079.94,74.5508 1089.06,69.9023 1092.64,63.4453 L 1085.66,60.4492 L 1085.66,60.4492"
         style="fill:#1b63b7;fill-opacity:1;fill-rule:nonzero;stroke:none"
         id="path85" /><path
         d="M 1118,44.1016 C 1119.43,57.1484 1133.36,68.2422 1150.17,68.2422 C 1167.13,68.2422 1179.63,56.8555 1181.61,44.1016 L 1118,44.1016 L 1118,44.1016 z M 1189.64,37.793 C 1189.82,57.7539 1174.99,74.5508 1149.98,74.5508 C 1125.86,74.5508 1109.96,57.8984 1109.96,38.5547 C 1109.96,18.9062 1125.51,2.24609 1149.98,2.24609 C 1166.24,2.24609 1179.45,9.00391 1186.96,20.9961 L 1180.19,24.2969 C 1174.28,15 1163.93,8.55469 1151.05,8.55469 C 1131.93,8.55469 1117.46,20.2539 1118,37.793 L 1189.64,37.793 L 1189.64,37.793"
         style="fill:#1b63b7;fill-opacity:1;fill-rule:nonzero;stroke:none"
         id="path87" /><path
         d="M 1350.72,93.75 C 1340.37,104.395 1322.15,111.602 1305.55,111.602 C 1271.97,111.602 1244.3,87.3047 1244.3,59.5508 C 1244.3,46.3477 1251.09,33.9062 1262.34,24.6016 C 1273.59,15.6055 1289.65,9.00391 1305.55,9.00391 C 1321.09,9.00391 1340.72,16.0547 1350.72,26.25 L 1350.72,16.3477 C 1338.05,7.5 1322.51,2.24609 1305.9,2.24609 C 1268.4,2.24609 1235.72,28.4961 1235.72,60.1562 C 1235.72,92.2461 1267.87,118.352 1306.09,118.352 C 1322.34,118.352 1338.76,112.949 1350.72,103.652 L 1350.72,93.75"
         style="fill:#1b63b7;fill-opacity:1;fill-rule:nonzero;stroke:none"
         id="path89" /><path
         d="M 1409.3,68.2422 C 1429.66,68.2422 1445.2,55.3516 1445.2,38.2539 C 1445.2,21.4453 1429.47,8.55469 1409.3,8.55469 C 1389.84,8.55469 1375.02,22.5 1375.02,38.2539 C 1375.02,54.2969 1389.66,68.2422 1409.3,68.2422 L 1409.3,68.2422 z M 1409.84,74.5508 C 1385.91,74.5508 1366.97,58.2031 1366.97,38.2539 C 1366.97,18.5938 1386.09,2.24609 1409.84,2.24609 C 1434.12,2.24609 1453.22,17.8516 1453.22,38.3984 C 1453.22,58.9453 1434.12,74.5508 1409.84,74.5508 L 1409.84,74.5508"
         style="fill:#1b63b7;fill-opacity:1;fill-rule:nonzero;stroke:none"
         id="path91" /><path
         d="M 1480.72,3.75 L 1472.7,3.75 L 1472.7,127.5 L 1480.72,127.5 L 1480.72,3.75"
         style="fill:#1b63b7;fill-opacity:1;fill-rule:nonzero;stroke:none"
         id="path93" /><path
         d="M 1516.27,64.3555 L 1516.62,64.3555 C 1520.37,70.8008 1528.59,74.5508 1537.34,74.5508 C 1547.87,74.5508 1556.27,70.0508 1560.55,61.9531 C 1565.02,70.1953 1574.12,74.5508 1584.66,74.5508 C 1605.91,74.5508 1610.2,62.4023 1610.2,47.2461 L 1610.2,3.75 L 1602.16,3.75 L 1602.16,48.1445 C 1602.16,58.8008 1600.2,68.2422 1584.47,68.2422 C 1567.34,68.2422 1563.22,55.6445 1563.22,43.6523 L 1563.22,3.75 L 1555.2,3.75 L 1555.2,46.5039 C 1555.2,57.3047 1552.87,68.2422 1536.8,68.2422 C 1519.47,68.2422 1516.27,53.1055 1516.27,41.8555 L 1516.27,3.75 L 1508.22,3.75 L 1508.22,73.0469 L 1516.27,73.0469 L 1516.27,64.3555"
         style="fill:#1b63b7;fill-opacity:1;fill-rule:nonzero;stroke:none"
         id="path95" /><path
         d="M 1669.66,68.2422 C 1689.66,68.2422 1702.7,55.6445 1702.7,39.6016 C 1702.7,22.9492 1691.27,8.55469 1670.2,8.55469 C 1650.2,8.55469 1637.7,22.9492 1637.7,38.8477 C 1637.7,53.8477 1650.72,68.2422 1669.66,68.2422 L 1669.66,68.2422 z M 1710.2,73.0469 L 1702.16,73.0469 L 1702.16,61.0547 L 1701.8,61.0547 C 1694.84,69.7461 1682.7,74.5508 1670.02,74.5508 C 1645.2,74.5508 1629.66,59.1016 1629.66,38.8477 C 1629.66,18.5938 1645.37,2.24609 1670.37,2.24609 C 1682.52,2.24609 1695.72,7.34375 1701.8,16.1992 L 1702.16,16.1992 L 1702.16,3.75 L 1710.2,3.75 L 1710.2,73.0469"
         style="fill:#1b63b7;fill-opacity:1;fill-rule:nonzero;stroke:none"
         id="path97" /><path
         d="M 1745.73,64.043 L 1746.09,64.043 C 1749.3,70.3516 1755.2,74.5508 1763.95,74.5508 C 1767.16,74.5508 1769.84,73.9453 1772.7,72.8984 L 1768.41,66.8945 C 1766.45,67.793 1764.84,68.2422 1762.7,68.2422 C 1744.66,68.2422 1745.73,49.3555 1745.73,39.1484 L 1745.73,3.75 L 1737.7,3.75 L 1737.7,73.0469 L 1745.73,73.0469 L 1745.73,64.043"
         style="fill:#1b63b7;fill-opacity:1;fill-rule:nonzero;stroke:none"
         id="path99" /><path
         d="M 1227.23,38.5938 L 1202.73,38.5938 L 1202.73,47.5977 L 1227.23,47.5977 L 1227.23,38.5938"
         style="fill:#1b63b7;fill-opacity:1;fill-rule:nonzero;stroke:none"
         id="path101" /></g></g></svg>